<?xml version="1.0" encoding="UTF-8" standalone="no"?>
<!DOCTYPE svg  PUBLIC '-//W3C//DTD SVG 1.1//EN'  'http://www.w3.org/Graphics/SVG/1.1/DTD/svg11.dtd'>
<svg style="enable-background:new 0 0 65.2 47.4" xmlns="http://www.w3.org/2000/svg" xml:space="preserve" height="47.4px" width="65.2px" version="1.1" y="0px" x="0px" xmlns:xlink="http://www.w3.org/1999/xlink" viewBox="0 0 65.2 47.4">
<g id="Layer_15">
	<g clip-rule="evenodd" fill-rule="evenodd">
		<path d="m46.7 13c-0.367 0.033-0.7-0.117-1-0.45-0.233-0.4-0.3-0.767-0.2-1.1-0.366 0.066-0.684-0.067-0.95-0.4-0.233-0.3-0.316-0.65-0.25-1.05-0.333 0-0.633-0.15-0.899-0.45-0.233-0.3-0.317-0.667-0.25-1.1-0.334 0.066-0.634-0.067-0.9-0.4-0.234-0.267-0.317-0.617-0.251-1.05-0.333 0-0.634-0.15-0.9-0.45-0.234-0.333-0.3-0.683-0.2-1.05-0.367 0-0.684-0.15-0.95-0.45-0.233-0.267-0.316-0.617-0.25-1.05-0.334 0-0.634-0.15-0.9-0.45-0.233-0.267-0.316-0.617-0.25-1.05-0.333 0-0.633-0.15-0.899-0.45-0.301-0.433-0.351-0.85-0.151-1.25 0.2-0.066 0.4-0.15 0.6-0.25-0.3 0.533-0.267 1.05 0.1 1.55 0.2 0.3 0.5 0.45 0.899 0.45-0.066 0.434 0.017 0.784 0.25 1.05 0.267 0.3 0.584 0.45 0.95 0.45-0.1 0.367-0.017 0.733 0.25 1.1 0.2 0.3 0.5 0.45 0.9 0.45-0.066 0.433 0.017 0.783 0.25 1.05 0.267 0.3 0.566 0.45 0.899 0.45-0.066 0.433 0.017 0.783 0.25 1.05 0.267 0.3 0.584 0.45 0.95 0.45-0.1 0.367-0.033 0.717 0.2 1.05 0.2 0.3 0.517 0.45 0.95 0.45-0.066 0.433 0.017 0.8 0.25 1.1 0.1 0.1 0.2 0.183 0.3 0.25 0.2 0.133 0.417 0.2 0.65 0.2-0.101 0.367-0.034 0.717 0.199 1.05 0.103 0.133 0.219 0.233 0.353 0.3zm-37.15 33.05c1.867-0.733 3.617-0.517 5.25 0.65l31.75-27.8c-0.399-0.967-0.55-1.983-0.45-3.05 0.101-0.967 0.384-1.867 0.851-2.7 0.233 0.067 0.5 0.033 0.8-0.1v0.05c-0.566 0.9-0.9 1.883-1 2.95-0.1 1.1 0.05 2.133 0.45 3.1l-32.201 28.25c-0.8-0.601-1.683-0.95-2.65-1.051-1-0.1-1.95 0.034-2.85 0.4l-0.05-0.049c0.1-0.2 0.133-0.417 0.1-0.65zm22.65-45.85l0.2-0.2c0.833 0.6 1.75 0.95 2.75 1.05 0.1 0 0.216 0.017 0.35 0.05-0.267 0-0.533-0.017-0.8-0.05-0.9-0.1-1.733-0.383-2.5-0.85zm-23.85 44.15c0.333 0.034 0.6 0.167 0.8 0.4 0.233 0.3 0.333 0.616 0.3 0.95-0.067-0.101-0.133-0.2-0.2-0.3-0.2-0.301-0.5-0.45-0.9-0.45 0.033-0.233 0.033-0.433 0-0.6zm-0.05-0.15c-0.066-0.101-0.133-0.184-0.2-0.25-0.2-0.3-0.5-0.45-0.9-0.45 0.033-0.233 0.033-0.434 0-0.6 0.333 0.034 0.6 0.166 0.8 0.4s0.3 0.533 0.3 0.9zm-3.4-4.35c-0.066-0.1-0.133-0.199-0.2-0.3-0.233-0.3-0.55-0.45-0.95-0.45 0.067-0.166 0.083-0.35 0.05-0.55 0.333 0 0.6 0.15 0.8 0.45 0.2 0.2 0.3 0.483 0.3 0.85zm-1.15-1.4c-0.067-0.134-0.133-0.267-0.2-0.4-0.233-0.3-0.55-0.45-0.95-0.45 0.033-0.166 0.033-0.333 0-0.5-0.033-0.199-0.117-0.383-0.25-0.55-0.167-0.267-0.467-0.399-0.9-0.399 0.033-0.2 0.033-0.384 0-0.551-0.033-0.2-0.117-0.367-0.25-0.5-0.3-0.4-0.683-0.55-1.15-0.45l-0.05-0.05c0.1-0.133 0.183-0.283 0.25-0.449 0.367-0.067 0.683 0.083 0.95 0.449 0.233 0.267 0.316 0.601 0.25 1 0.367 0 0.667 0.15 0.9 0.45 0.233 0.334 0.316 0.684 0.25 1.05 0.367 0 0.667 0.134 0.9 0.4 0.2 0.333 0.283 0.65 0.25 0.95zm3.4 4.25c-0.066-0.101-0.133-0.184-0.2-0.25-0.233-0.3-0.533-0.45-0.9-0.45 0.034-0.233 0.034-0.434 0-0.6 0.333 0.033 0.6 0.183 0.8 0.449 0.2 0.234 0.3 0.517 0.3 0.851zm-1.15-1.4c-0.067-0.1-0.133-0.2-0.2-0.3-0.2-0.3-0.483-0.45-0.85-0.45 0.033-0.2 0.017-0.399-0.05-0.6 0.333 0 0.617 0.149 0.85 0.45 0.2 0.333 0.283 0.633 0.25 0.9zm-5.1-9.5v-0.1c0.067-1.033-0.1-2.033-0.5-3l0.15-0.1c0.4 1.067 0.517 2.133 0.35 3.2z" fill="#B2B9A3"/>
		<path d="m9.55 46.05c-0.066 0-0.133 0.017-0.2 0.05l-0.05-0.05c0.067-0.133 0.117-0.25 0.15-0.35 0.033-0.334-0.067-0.65-0.3-0.95-0.2-0.233-0.467-0.366-0.8-0.4h-0.1c0-0.066 0.017-0.116 0.05-0.149 0-0.367-0.1-0.667-0.3-0.9s-0.467-0.367-0.8-0.401c-0.034-0.034-0.067-0.051-0.1-0.051 0-0.033 0.017-0.083 0.05-0.149 0-0.334-0.1-0.617-0.3-0.851-0.2-0.267-0.467-0.416-0.8-0.449h-0.1c0-0.034 0.017-0.067 0.05-0.101 0.033-0.267-0.05-0.566-0.25-0.899-0.233-0.3-0.517-0.45-0.85-0.45h-0.05c0-0.033 0.017-0.066 0.05-0.101 0-0.366-0.1-0.649-0.3-0.85-0.2-0.3-0.467-0.45-0.8-0.45h-0.1c0-0.033 0.017-0.066 0.05-0.1 0.033-0.3-0.05-0.617-0.25-0.95-0.233-0.267-0.533-0.4-0.9-0.4 0.066-0.366-0.017-0.716-0.25-1.05-0.233-0.3-0.533-0.45-0.9-0.45 0.066-0.399-0.017-0.733-0.25-1-0.267-0.366-0.583-0.517-0.95-0.449-0.067 0-0.133 0.017-0.2 0.05l-0.05-0.05c0.467-0.766 0.767-1.55 0.9-2.35 0.167-1.066 0.05-2.133-0.35-3.2-0.067-0.1-0.117-0.2-0.15-0.3l31.55-28.3c0.1 0.067 0.184 0.133 0.25 0.2 0.767 0.466 1.6 0.75 2.5 0.85 0.267 0.034 0.533 0.05 0.8 0.05 0.667-0.033 1.35-0.217 2.05-0.55h0.05c-0.066 0.067-0.1 0.15-0.1 0.25-0.2 0.4-0.15 0.817 0.15 1.25 0.267 0.3 0.566 0.45 0.899 0.45-0.066 0.433 0.017 0.783 0.25 1.05 0.267 0.3 0.567 0.45 0.901 0.45-0.066 0.433 0.017 0.783 0.25 1.05 0.267 0.3 0.583 0.45 0.95 0.45-0.1 0.367-0.034 0.717 0.2 1.05 0.266 0.3 0.567 0.45 0.9 0.45-0.066 0.433 0.017 0.783 0.25 1.05 0.267 0.333 0.566 0.467 0.9 0.4-0.067 0.433 0.017 0.8 0.25 1.1 0.267 0.3 0.567 0.45 0.9 0.45-0.066 0.4 0.017 0.75 0.25 1.05 0.267 0.333 0.584 0.467 0.95 0.4-0.1 0.333-0.033 0.7 0.2 1.1 0.3 0.333 0.633 0.483 1 0.45 0.1 0 0.217-0.033 0.35-0.1h0.05c-0.033 0.067-0.083 0.15-0.149 0.25-0.467 0.833-0.75 1.733-0.851 2.7-0.1 1.066 0.051 2.083 0.45 3.05l-31.75 27.8c-1.633-1.167-3.383-1.384-5.25-0.65zm30.6-37.15v-0.05l-0.45-0.5-4.05-5.3-0.2 0.05c-1.367 0.4-2.617 0.2-3.75-0.6l-0.2-0.15-28.9 25.95 0.1 0.2c0.533 1.333 0.483 2.7-0.15 4.1l-0.1 0.2 8.6 10.95 0.2-0.05c1.4-0.367 2.65-0.167 3.75 0.6l0.2 0.15 29.05-25.5-0.05-0.25c-0.533-1.333-0.483-2.684 0.149-4.05l0.051-0.2-4.25-5.55zm-33.25 28.5l0.45 0.55 17.4-15.4-1.35-0.55c-0.4-0.133-0.65-0.317-0.75-0.55l0.05-0.95 1.35-4.3c0-0.233 0.017-0.483 0.05-0.75 0.167-2.233 1.066-4.067 2.7-5.5 1.6-1.434 3.45-2.05 5.55-1.85 0.266 0.033 0.55 0.083 0.85 0.15l4.05-0.7h0.35c0.233 0.034 0.417 0.083 0.551 0.15 0.199 0.133 0.316 0.417 0.35 0.85l0.3 1.55 0.851-0.75 4 5.2c-0.567 1.434-0.617 2.817-0.15 4.15l-28.352 24.9c-1.2-0.767-2.5-0.966-3.9-0.6l-4.35-5.6zm27-26.05l1.1-0.2 0.25 1.35-1.15 0.15-0.2-1.3zm1.15-0.15l-0.2-1.35 1.1-0.15 0.2 1.35-1.1 0.15zm-2.4 0.4l-0.2-1.35 1.1-0.2 0.25 1.35-1.15 0.2zm1.8-3.15h0.05l0.2 1.3-1.1 0.2-0.25-1.35-1.35 0.2h0.05l0.25 1.35-0.95 0.15 0.2 1.4 1.05-0.15 0.25 1.35-1.05 0.15 0.05 0.55c0.066 0.467 0.3 0.667 0.7 0.6l0.601-0.1-0.151-1.1 1.1-0.2 0.2 1.1 1.25-0.2-0.15-1.1 1.1-0.2 0.15 1.1 1.199-0.15-0.199-1.15 1-0.15-0.2-1.4-1.101 0.2-0.199-1.35 0.95-0.15 0.1-0.05-0.1-0.75c-0.067-0.433-0.284-0.617-0.65-0.55l-0.8 0.1h0.1l0.2 1.3-1.05 0.2-0.25-1.3-1.2 0.15zm-4.05 0.55c-0.3 0-0.417 0.183-0.35 0.55l2 12.3c0 0.367 0.167 0.517 0.5 0.45 0.267-0.066 0.367-0.267 0.3-0.6l-1.95-12.3c-0.067-0.333-0.233-0.467-0.5-0.4zm6 3.3l-0.2-1.35 1.1-0.15 0.2 1.35-1.1 0.15zm-6.8-1.95c-0.6 0.233-1.167 0.6-1.7 1.1-0.533 0.466-0.95 0.983-1.25 1.55l3.6 1.45-0.65-4.1zm-3.35 4.45l-0.3 1-1.15-0.45-0.45 1.3 1.15 0.45-0.35 1.15-1.15-0.5-0.35 1.2 1.15 0.5-0.35 1.1-1.15-0.45-0.25 0.7c-0.133 0.367 0 0.617 0.4 0.75l0.65 0.3 0.1-0.15 0.3-0.95 1.15 0.45-0.35 1.1h-0.05l1.3 0.5 0.3-1 1 0.4 0.35-1.2-0.95-0.4 0.35-1.1 1 0.4 0.4-1.3-0.95-0.4 0.35-1.15 1 0.4 0.2-0.65c0.1-0.333-0.033-0.6-0.4-0.8l-0.5-0.2-0.35 1.05-1.2-0.45 0.35-1.05-1.25-0.55zm0.55 2.8l-1.15-0.5 0.35-1.1 1.2 0.45-0.4 1.15zm1.1 0.6l-0.35 1.1-1.2-0.45 0.4-1.15 1.15 0.5zm-1.85 1.85l-1.2-0.5 0.35-1.1 1.2 0.45-0.35 1.15zm0.75 1.6l-1.15-0.5 0.35-1.1 1.15 0.45-0.35 1.15zm1.6-0.2c0.8 0.566 1.7 0.9 2.7 1 0.2 0 0.383 0.017 0.55 0.05-0.1-0.167-0.167-0.35-0.2-0.55l-0.8-5-0.65-0.25-1.6 4.75zm-3.05 2.65c-0.267-0.2-0.5-0.2-0.7 0l-2 1.75c-0.233 0.233-0.233 0.467 0 0.7 0.2 0.2 0.434 0.217 0.7 0.05l0.55-0.55 2.4 2.7c0.267 0.267 0.534 0.283 0.8 0.05 0.233-0.233 0.233-0.5 0-0.8l-2.4-2.65 0.6-0.55c0.233-0.2 0.25-0.434 0.05-0.7zm0.45-10.75c-0.3-0.1-0.5-0.017-0.6 0.25-0.067 0.3 0.05 0.5 0.35 0.6l5 2-0.15-1-4.6-1.85zm11.15 3.8c0.166 0.067 0.3 0.15 0.399 0.25 0.034-0.2 0.051-0.4 0.051-0.6 0.1-1.066-0.034-2.066-0.4-3l-4.65 0.85 0.101 0.7 4.499 1.8zm0.1 1.15c0.066-0.3-0.033-0.5-0.3-0.6l-4.2-1.65 0.2 1.05 3.7 1.45c0.3 0.1 0.5 0.017 0.6-0.25zm-1.7 2.75c0.601-0.533 1.067-1.133 1.4-1.8-0.167 0-0.35-0.033-0.55-0.1l-3.35-1.35 0.601 3.8c0.033 0.2 0.033 0.4 0 0.6 0.665-0.267 1.299-0.65 1.899-1.15zm-15.35 7.8c-0.233-0.233-0.483-0.233-0.75 0l-0.2 0.4-0.05 2.6-1.05-1.15c-0.2-0.267-0.45-0.283-0.75-0.05-0.233 0.3-0.25 0.55-0.05 0.75l2.8 3.1c0.2 0.267 0.45 0.283 0.75 0.05 0.2-0.267 0.216-0.517 0.05-0.75l-1.25-1.4 2.75 0.25c0.267 0.033 0.483 0 0.65-0.101 0.267-0.267 0.283-0.517 0.05-0.75-0.067-0.066-0.25-0.133-0.55-0.2l-2.4-0.149 0.1-1.9c0.033-0.3 0-0.533-0.1-0.7zm-5.65 5.3c0 0.666 0.25 1.283 0.75 1.85s1.1 0.884 1.8 0.95c0.667 0.066 1.267-0.134 1.8-0.601 0.8-0.699 1.017-1.267 0.65-1.699-0.067-0.101-0.167-0.15-0.3-0.15-0.133-0.033-0.25 0-0.35 0.1-0.133 0.367-0.35 0.684-0.65 0.95-0.7 0.601-1.4 0.517-2.1-0.25-0.3-0.366-0.467-0.733-0.5-1.1-0.034-0.4 0.117-0.733 0.45-1 0.3-0.3 0.633-0.483 1-0.55 0.2-0.2 0.2-0.434 0-0.7-0.367-0.367-0.933-0.217-1.7 0.45-0.533 0.5-0.817 1.083-0.85 1.75zm-1.7 0.6c-0.267 0.2-0.283 0.45-0.05 0.75l2.75 3.05c0.2 0.3 0.45 0.316 0.75 0.05 0.267-0.199 0.283-0.449 0.05-0.75l-2.75-3.05c-0.2-0.267-0.45-0.283-0.75-0.05zm-0.25 0.9c-0.233-0.233-0.45-0.233-0.65 0l-2 1.75c-0.233 0.234-0.25 0.466-0.05 0.7 0.267 0.2 0.5 0.217 0.7 0.051l0.6-0.551 2.4 2.7c0.267 0.267 0.517 0.283 0.75 0.05 0.3-0.233 0.317-0.5 0.05-0.8l-2.4-2.65 0.6-0.551c0.267-0.199 0.267-0.432 0-0.699zm10.15-8.35c0.267-0.233 0.284-0.467 0.05-0.7s-0.467-0.25-0.7-0.05l-1.35 1.2c-0.267 0.233-0.267 0.517 0 0.85l2.6 2.9c0.267 0.267 0.533 0.283 0.8 0.05l1.35-1.25c0.3-0.2 0.317-0.434 0.05-0.7-0.2-0.267-0.434-0.267-0.7 0l-1 0.851-0.7-0.8 0.9-0.801c0.233-0.199 0.25-0.433 0.05-0.699-0.233-0.233-0.483-0.233-0.75 0l-0.85 0.749-0.7-0.75 0.95-0.85z" fill="#E1EACD"/>
		<path d="m39.7 8.35l0.45 0.55 4.25 5.55-0.051 0.2c-0.633 1.367-0.683 2.717-0.149 4.05l0.05 0.25-29.05 25.5-0.2-0.15c-1.1-0.767-2.35-0.967-3.75-0.6l-0.2 0.05-8.6-10.95 0.1-0.2c0.633-1.399 0.684-2.767 0.15-4.1l-0.1-0.2 28.9-25.95 0.2 0.15c1.133 0.8 2.383 1 3.75 0.6l0.2-0.05 4.05 5.3zm-0.05 1l-4.25-5.5c-1.434 0.333-2.717 0.133-3.851-0.6l-28.199 25.25c0.533 1.366 0.483 2.767-0.15 4.2l3.7 4.7 4.35 5.6c1.4-0.366 2.7-0.167 3.9 0.6l28.35-24.9c-0.467-1.333-0.417-2.717 0.15-4.15l-4-5.2zm-5.2-0.9l1.2-0.15 0.25 1.3 1.05-0.2-0.2-1.3h-0.1l0.8-0.1c0.366-0.067 0.583 0.117 0.649 0.55l0.101 0.75-0.1 0.05-0.95 0.15 0.199 1.35 1.101-0.2 0.2 1.4-1 0.15 0.199 1.15-1.199 0.15-0.15-1.1-1.1 0.2 0.149 1.1-1.25 0.2-0.2-1.1-1.099 0.2 0.15 1.1-0.601 0.1c-0.399 0.066-0.633-0.133-0.7-0.6l-0.05-0.55 1.05-0.15-0.25-1.35-1.05 0.15-0.2-1.4 0.95-0.15-0.249-1.35h-0.05l1.35-0.2 0.25 1.35 1.101-0.2-0.2-1.3h-0.051zm-1.8 3.15l1.149-0.2-0.25-1.35-1.1 0.2 0.201 1.35zm2.4-0.4l1.101-0.15-0.2-1.35-1.101 0.15 0.2 1.35zm-1.15 0.15l0.199 1.3 1.15-0.15-0.249-1.35-1.1 0.2zm-3.5-2.35c0.267-0.067 0.434 0.067 0.5 0.4l1.95 12.3c0.067 0.333-0.033 0.533-0.3 0.6-0.333 0.067-0.5-0.083-0.5-0.45l-2-12.3c-0.067-0.367 0.05-0.55 0.35-0.55zm6 3.3l1.1-0.15-0.2-1.35-1.1 0.15 0.2 1.35zm-8.5 5.9l-1.15-0.5-0.4 1.15 1.2 0.45 0.35-1.1zm-1.1-0.6l0.4-1.15-1.2-0.45-0.35 1.1 1.15 0.5zm-0.55-2.8l1.25 0.55-0.35 1.05 1.2 0.45 0.35-1.05 0.5 0.2c0.367 0.2 0.5 0.467 0.4 0.8l-0.2 0.65-1-0.4-0.35 1.15 0.95 0.4-0.4 1.3-1-0.4-0.35 1.1 0.95 0.4-0.35 1.2-1-0.4-0.3 1-1.3-0.5h0.05l0.35-1.1-1.15-0.45-0.3 0.95-0.1 0.15-0.65-0.3c-0.4-0.133-0.534-0.383-0.4-0.75l0.25-0.7 1.15 0.45 0.35-1.1-1.15-0.5 0.35-1.2 1.15 0.5 0.35-1.15-1.15-0.45 0.45-1.3 1.15 0.45 0.3-1zm0.55 6.85l0.35-1.15-1.15-0.45-0.35 1.1 1.15 0.5zm-0.75-1.6l0.35-1.15-1.2-0.45-0.35 1.1 1.2 0.5zm-0.25-6.7l4.6 1.85 0.15 1-5-2c-0.3-0.1-0.417-0.3-0.35-0.6 0.1-0.267 0.3-0.35 0.6-0.25zm11.25 4.95c-0.1 0.267-0.3 0.35-0.6 0.25l-3.7-1.45-0.2-1.05 4.2 1.65c0.267 0.1 0.366 0.3 0.3 0.6z" fill="#70795B"/>
		<path d="m40.15 8.9l-0.45-0.55 0.45 0.5v0.05zm-33.25 28.5l-3.7-4.7c0.633-1.434 0.683-2.834 0.15-4.2l28.2-25.25c1.134 0.733 2.417 0.933 3.851 0.6l4.25 5.5-0.851 0.75-0.3-1.55c-0.033-0.433-0.15-0.716-0.35-0.85-0.134-0.067-0.317-0.117-0.551-0.15h-0.35l-4.05 0.7c-0.3-0.067-0.584-0.117-0.851-0.15-2.1-0.2-3.95 0.417-5.55 1.85-1.633 1.433-2.533 3.267-2.7 5.5-0.033 0.267-0.05 0.517-0.05 0.75l-1.35 4.3-0.05 0.95c0.1 0.233 0.35 0.417 0.75 0.55l1.35 0.55-17.4 15.4-0.448-0.55zm22.7-27.05l0.65 4.1-3.6-1.45c0.3-0.567 0.717-1.083 1.25-1.55 0.533-0.5 1.1-0.867 1.7-1.1zm-8.3 13.1c-0.233-0.233-0.483-0.233-0.75 0l-0.95 0.85-0.75-0.8 0.9-0.8c0.233-0.2 0.25-0.434 0.05-0.7-0.2-0.267-0.45-0.267-0.75 0l-0.85 0.75-0.7-0.75 0.95-0.85c0.267-0.233 0.283-0.467 0.05-0.7s-0.467-0.25-0.7-0.05l-1.35 1.2c-0.267 0.233-0.267 0.517 0 0.85l2.6 2.899c0.267 0.267 0.534 0.284 0.8 0.051l1.4-1.25c0.233-0.2 0.25-0.433 0.05-0.7zm7.1-2l1.6-4.75 0.65 0.25 0.8 5c0.033 0.2 0.1 0.383 0.2 0.55-0.167-0.033-0.35-0.05-0.55-0.05-1-0.1-1.9-0.433-2.7-1zm-3.05 2.65c0.2 0.267 0.183 0.5-0.05 0.7l-0.6 0.55 2.4 2.65c0.233 0.3 0.233 0.566 0 0.8-0.267 0.233-0.533 0.217-0.8-0.05l-2.4-2.7-0.55 0.55c-0.267 0.167-0.5 0.15-0.7-0.05-0.233-0.233-0.233-0.467 0-0.7l2-1.75c0.2-0.2 0.433-0.2 0.7 0zm11.6-6.95l-4.5-1.8-0.101-0.7 4.651-0.85c0.366 0.934 0.5 1.934 0.4 3 0 0.2-0.017 0.4-0.051 0.6-0.099-0.1-0.233-0.183-0.399-0.25zm-1.6 3.9c-0.6 0.5-1.233 0.883-1.899 1.15 0.033-0.2 0.033-0.4 0-0.6l-0.601-3.8 3.351 1.35c0.2 0.067 0.383 0.1 0.55 0.1-0.334 0.667-0.801 1.267-1.401 1.8zm-19.8 8.25c0.267-0.233 0.284-0.467 0.05-0.7l-0.2-0.149-3.65-1.95c-0.367-0.2-0.7-0.184-1 0.05-0.267 0.267-0.317 0.584-0.15 0.95l1.5 3.9 0.15 0.199c0.2 0.267 0.433 0.267 0.7 0 0.2-0.166 0.25-0.366 0.15-0.6l-0.3-0.65 1.5-1.35 0.6 0.35c0.233 0.167 0.45 0.15 0.65-0.05zm0.5-5.75c0.2-0.2 0.217-0.417 0.05-0.65-0.367-0.4-0.934-0.267-1.7 0.4-0.533 0.5-0.816 1.101-0.85 1.8 0 0.667 0.25 1.284 0.75 1.851s1.083 0.883 1.75 0.95c0.7 0.066 1.317-0.15 1.85-0.65 0.8-0.7 1.017-1.267 0.65-1.7-0.066-0.066-0.167-0.116-0.3-0.149-0.133-0.034-0.267 0-0.4 0.1-0.133 0.4-0.35 0.733-0.65 1-0.3 0.3-0.65 0.4-1.05 0.3-0.367-0.066-0.7-0.267-1-0.6-0.3-0.334-0.467-0.684-0.5-1.05-0.033-0.4 0.117-0.75 0.45-1.051 0.3-0.268 0.617-0.451 0.95-0.551zm3.95 5.3c0.1 0.167 0.133 0.4 0.1 0.7l-0.1 1.9 2.4 0.149c0.3 0.067 0.483 0.134 0.55 0.2 0.233 0.233 0.216 0.483-0.05 0.75-0.167 0.101-0.383 0.134-0.65 0.101l-2.75-0.25 1.25 1.399c0.167 0.233 0.15 0.483-0.05 0.75-0.3 0.233-0.55 0.217-0.75-0.05l-2.8-3.1c-0.2-0.2-0.183-0.45 0.05-0.75 0.3-0.233 0.55-0.217 0.75 0.05l1.05 1.151 0.05-2.6 0.2-0.4c0.267-0.234 0.517-0.234 0.75 0zm-7.85 3.5c0.267-0.233 0.267-0.483 0-0.75-0.033-0.1-0.133-0.149-0.3-0.149l-1.8-0.15c0.6-0.7 0.633-1.333 0.1-1.899-0.733-0.834-1.533-0.834-2.4 0l-0.95 0.848c-0.267 0.2-0.283 0.45-0.05 0.75l2.7 3c0.267 0.333 0.517 0.35 0.75 0.05 0.3-0.233 0.316-0.483 0.05-0.75l-1.05-1.15 2.5 0.35c0.2 0 0.35-0.05 0.45-0.15zm0.25-2.95l-0.9-2 1.9 1.1-1 0.9zm0 6.25c0.267 0.267 0.267 0.5 0 0.699l-0.6 0.551 2.4 2.649c0.267 0.3 0.25 0.566-0.05 0.8-0.233 0.233-0.483 0.217-0.75-0.05l-2.4-2.699-0.6 0.551c-0.2 0.165-0.433 0.149-0.7-0.051-0.2-0.233-0.184-0.466 0.05-0.699l2-1.75c0.2-0.234 0.417-0.234 0.65-0.001zm0.25-0.9c0.3-0.233 0.55-0.217 0.75 0.05l2.75 3.05c0.233 0.301 0.217 0.551-0.05 0.75-0.3 0.267-0.55 0.25-0.75-0.05l-2.75-3.05c-0.233-0.3-0.217-0.55 0.05-0.75zm1.7-0.6c0.033-0.667 0.316-1.25 0.85-1.75 0.767-0.667 1.333-0.817 1.7-0.45 0.2 0.267 0.2 0.5 0 0.7-0.367 0.066-0.7 0.25-1 0.55-0.333 0.267-0.483 0.6-0.45 1 0.033 0.366 0.2 0.733 0.5 1.1 0.7 0.767 1.4 0.851 2.1 0.25 0.3-0.267 0.517-0.583 0.65-0.95 0.1-0.1 0.216-0.133 0.35-0.1 0.133 0 0.233 0.05 0.3 0.15 0.367 0.433 0.15 1-0.65 1.699-0.534 0.467-1.133 0.667-1.8 0.601-0.7-0.066-1.3-0.384-1.8-0.95s-0.75-1.184-0.75-1.85zm-5.95-4.05c0.333-0.267 0.633-0.25 0.9 0.051 0.3 0.3 0.284 0.6-0.05 0.899l-0.55 0.5-0.85-0.95 0.55-0.5zm14.15-2.8l-0.95 0.85 0.7 0.75 0.85-0.75c0.267-0.233 0.517-0.233 0.75 0 0.2 0.267 0.184 0.5-0.05 0.699l-0.9 0.801 0.7 0.8 1-0.851c0.267-0.267 0.5-0.267 0.7 0 0.267 0.267 0.25 0.5-0.05 0.7l-1.35 1.25c-0.267 0.233-0.534 0.217-0.8-0.05l-2.6-2.9c-0.267-0.333-0.267-0.616 0-0.85l1.35-1.2c0.233-0.2 0.467-0.184 0.7 0.05s0.217 0.467-0.05 0.701z" fill="#7FABB9"/>
		<path d="m21.3 23.45c0.2 0.267 0.184 0.5-0.05 0.7l-1.4 1.25c-0.267 0.233-0.533 0.216-0.8-0.051l-2.6-2.899c-0.267-0.333-0.267-0.617 0-0.85l1.35-1.2c0.233-0.2 0.467-0.183 0.7 0.05s0.217 0.466-0.05 0.7l-0.95 0.85 0.7 0.75 0.85-0.75c0.3-0.267 0.55-0.267 0.75 0s0.184 0.5-0.05 0.7l-0.9 0.8 0.75 0.8 0.95-0.85c0.267-0.233 0.517-0.233 0.75 0zm-5.25 0.1c-0.333 0.1-0.65 0.284-0.95 0.55-0.333 0.301-0.483 0.65-0.45 1.051 0.033 0.366 0.2 0.716 0.5 1.05 0.3 0.333 0.633 0.533 1 0.6 0.4 0.101 0.75 0 1.05-0.3 0.3-0.267 0.517-0.6 0.65-1 0.133-0.1 0.267-0.134 0.4-0.1 0.133 0.033 0.233 0.083 0.3 0.149 0.367 0.434 0.15 1-0.65 1.7-0.533 0.5-1.15 0.717-1.85 0.65-0.667-0.067-1.25-0.384-1.75-0.95s-0.75-1.184-0.75-1.851c0.034-0.699 0.317-1.3 0.85-1.8 0.767-0.667 1.333-0.8 1.7-0.4 0.167 0.234 0.15 0.451-0.05 0.651zm-0.5 5.75c-0.2 0.2-0.417 0.217-0.65 0.05l-0.6-0.35-1.5 1.35 0.3 0.65c0.1 0.233 0.05 0.434-0.15 0.6-0.267 0.267-0.5 0.267-0.7 0l-0.15-0.2-1.5-3.9c-0.167-0.366-0.117-0.684 0.15-0.95 0.3-0.233 0.633-0.25 1-0.05l3.65 1.95 0.2 0.149c0.233 0.234 0.217 0.467-0.05 0.701zm-3.15 0.1l1-0.9-1.9-1.1 0.9 2zm-0.25 2.95c-0.1 0.101-0.25 0.15-0.45 0.15l-2.5-0.35 1.05 1.149c0.267 0.267 0.25 0.517-0.05 0.75-0.233 0.3-0.483 0.283-0.75-0.05l-2.7-3c-0.233-0.3-0.217-0.55 0.05-0.75l0.95-0.85c0.867-0.834 1.667-0.834 2.4 0 0.533 0.566 0.5 1.199-0.1 1.899l1.8 0.15c0.167 0 0.267 0.05 0.3 0.149 0.267 0.269 0.267 0.519 0 0.753zm-3.75-2.25l-0.55 0.5 0.85 0.95 0.55-0.5c0.333-0.3 0.35-0.6 0.05-0.899-0.267-0.301-0.567-0.318-0.9-0.051z" fill="#EDF6D8"/>
	</g>
</g>
</svg>
